<mxfile host="app.diagrams.net" modified="2024-02-24T01:07:30.804Z" agent="Mozilla/5.0 (Windows NT 10.0; Win64; x64) AppleWebKit/537.36 (KHTML, like Gecko) Chrome/121.0.0.0 Safari/537.36 Edg/121.0.0.0" version="23.1.6" etag="On5EoBZIeoGT2yKRAVY5" type="github">
  <diagram name="Page-1" id="0yXCITgOh7eB8SJ8ll__">
    <mxGraphModel>
      <root>
        <mxCell id="0" />
        <mxCell id="1" parent="0" />
      </root>
    </mxGraphModel>
  </diagram>
</mxfile>
